# xmcd CD database file
#
# Track frame offsets:
#	150
#	13449
#	25387
#	35999
#	49529
#	62759
#	75399
#	90516
#
# Disc length: 1506 seconds
#
# Revision: 0
# Processed by: cddbd v1.5.2PL0 Copyright (c) Steve Scherf et al.
# Submitted via: CDex 1.70beta2
#
DISCID=6105e008
DTITLE=Gene Krupa - SWING TIME4
DYEAR=1900
DGENRE=Jazz
TTITLE0=Sweet Georgia Brown
TTITLE1=After You've Gone
TTITLE2=Old Black Joe
TTITLE3=The Babe Takes A Bow
TTITLE4=Fare Thee Well, Annie Laurie
TTITLE5=Grandfather's Clock
TTITLE6=Deep In Blues
TTITLE7=Blue Rhythm Fantasy
EXTD=
EXTT0=
EXTT1=
EXTT2=
EXTT3=
EXTT4=
EXTT5=
EXTT6=
EXTT7=
PLAYORDER=
